<?xml version="1.0" encoding="UTF-8"?>
<svg xmlns="http://www.w3.org/2000/svg" xmlns:xlink="http://www.w3.org/1999/xlink" width="67" height="48" viewBox="0 0 3750 1875">
<rect x="-375" y="-187.5" width="55" height="43" fill="rgb(100%, 100%, 100%)" fill-opacity="1"/>
<path fill-rule="nonzero" fill="rgb(0%, 0%, 0%)" fill-opacity="1" d="M 1807.289062 131.171875 L 1807.289062 315.640625 L 1786.648438 315.640625 L 1786.648438 457.710938 L 1759.128906 500.449219 L 1759.128906 841.71875 L 1738.058594 841.71875 L 1738.058594 1156.015625 L 1718.488281 1156.015625 L 1718.488281 1405.574219 L 1703.449219 1405.574219 L 1703.449219 1482.769531 L 1549.960938 1482.769531 L 1549.960938 1527.28125 L 1509.328125 1527.28125 L 1509.328125 1486.8125 L 1354.328125 1486.8125 L 1354.328125 1507.050781 L 1304.671875 1507.050781 L 1304.671875 1431.515625 L 1157.210938 1431.515625 L 1157.210938 1492.210938 L 1137.640625 1492.210938 L 1137.640625 1423.417969 L 1042.839844 1423.417969 L 1042.839844 1257.503906 L 983.691406 1257.503906 L 983.691406 1452.917969 L 966.085938 1457.140625 L 966.085938 1695.589844 L 926.964844 1695.589844 L 926.964844 1672.664062 L 883.332031 1672.664062 L 883.332031 1471.667969 L 830.652344 1471.667969 L 830.652344 1505.394531 L 815.609375 1505.394531 L 815.609375 1699.632812 L 788.519531 1699.632812 L 788.519531 1491.898438 L 767.453125 1491.898438 L 767.453125 1444.6875 L 698.230469 1444.6875 L 698.230469 1259.890625 L 564.308594 1259.890625 L 564.308594 1443.34375 L 539.414062 1443.34375 L 539.414062 1391.015625 L 481.542969 1361.054688 L 436.398438 1361.054688 L 436.398438 1402.875 L 404.800781 1402.875 L 404.800781 1335.425781 L 305.476562 1335.425781 L 305.476562 1351.609375 L 278.386719 1351.609375 L 278.386719 1688.847656 L 225.722656 1688.847656 L 225.722656 1610.613281 L 162.523438 1610.613281 L 162.523438 941.550781 L 0 941.550781 L 0 1875 L 3750 1875 L 3750 1446.238281 L 3499.289062 1446.238281 L 3499.289062 1612.199219 L 3426.929688 1612.199219 L 3426.929688 1532.082031 L 3367.339844 1532.082031 L 3367.339844 1482.480469 L 3292.859375 1482.480469 L 3292.859375 1556.878906 L 3201.351562 1556.878906 L 3201.351562 1274.546875 L 2975.761719 1274.546875 L 2975.761719 1478.667969 L 2895.96875 1478.667969 L 2895.96875 1407.125 L 2826.800781 1469.128906 L 2826.800781 1673.25 L 2777.851562 1673.25 L 2777.851562 1152.449219 L 2756.570312 1152.449219 L 2756.570312 1102.859375 L 2588.449219 1102.859375 L 2588.449219 969.328125 L 2516.089844 969.328125 L 2516.089844 793.808594 C 2416.070312 795.71875 2375.628906 877.753906 2375.628906 877.753906 L 2375.628906 1028.457031 L 2337.320312 1028.457031 L 2337.320312 1652.265625 L 2294.769531 1652.265625 L 2294.769531 1492.019531 L 2164.949219 1492.019531 L 2164.949219 1577.863281 L 2120.109375 1577.863281 L 2120.109375 1131.550781 L 2079.820312 1069.011719 L 2006.289062 1069.011719 L 1957.441406 1144.828125 L 1957.441406 1242.410156 L 1924.46875 1234.484375 L 1924.46875 965.503906 L 1901.890625 965.503906 L 1901.890625 613.121094 L 1859.949219 603.058594 L 1859.949219 359.480469 L 1835.871094 359.480469 L 1835.871094 131.171875 Z M 1807.289062 131.171875 "/>
</svg>
